<?xml version="1.0" encoding="UTF-8" standalone="no"?>
<svg
   width="32"
   height="32"
   viewBox="0 0 24 24"
   version="1.1"
   id="svg4"
   sodipodi:docname="brightness.svg"
   inkscape:export-filename="brightness.png"
   inkscape:export-xdpi="50.97345"
   inkscape:export-ydpi="50.97345"
   inkscape:version="1.2.2 (b0a8486541, 2022-12-01)"
   xmlns:inkscape="http://www.inkscape.org/namespaces/inkscape"
   xmlns:sodipodi="http://sodipodi.sourceforge.net/DTD/sodipodi-0.dtd"
   xmlns="http://www.w3.org/2000/svg"
   xmlns:svg="http://www.w3.org/2000/svg">
  <defs
     id="defs8" />
  <sodipodi:namedview
     id="namedview6"
     pagecolor="#ffffff"
     bordercolor="#000000"
     borderopacity="0.25"
     inkscape:showpageshadow="2"
     inkscape:pageopacity="0.0"
     inkscape:pagecheckerboard="0"
     inkscape:deskcolor="#d1d1d1"
     showgrid="false"
     inkscape:zoom="27.4375"
     inkscape:cx="7.3986333"
     inkscape:cy="16.05467"
     inkscape:window-width="1864"
     inkscape:window-height="985"
     inkscape:window-x="0"
     inkscape:window-y="0"
     inkscape:window-maximized="1"
     inkscape:current-layer="svg4" />
  <path
     fill="currentColor"
     d="M12 23.3L8.65 20H4v-4.65L.7 12L4 8.65V4h4.65L12 .7L15.35 4H20v4.65L23.3 12L20 15.35V20h-4.65L12 23.3ZM12 12Zm0 8.5l2.5-2.5H18v-3.5l2.5-2.5L18 9.5V6h-3.5L12 3.5L9.5 6H6v3.5L3.5 12L6 14.5V18h3.5l2.5 2.5Zm0-2.5q2.5 0 4.25-1.75T18 12q0-2.5-1.75-4.25T12 6q-.65 0-1.3.125t-1.225.4q1.6.75 2.563 2.238T13 12q0 1.75-.963 3.238t-2.562 2.237q.575.275 1.225.4T12 18Z"
     id="path2"
     style="fill:#ffffff" />
</svg>
