<?xml version="1.0" encoding="UTF-8" standalone="no"?>
<svg
   width="32"
   height="32"
   viewBox="0 0 24 24"
   version="1.1"
   id="svg1"
   sodipodi:docname="lock.svg"
   inkscape:version="1.3 (0e150ed6c4, 2023-07-21)"
   xmlns:inkscape="http://www.inkscape.org/namespaces/inkscape"
   xmlns:sodipodi="http://sodipodi.sourceforge.net/DTD/sodipodi-0.dtd"
   xmlns="http://www.w3.org/2000/svg"
   xmlns:svg="http://www.w3.org/2000/svg">
  <defs
     id="defs1" />
  <sodipodi:namedview
     id="namedview1"
     pagecolor="#ffffff"
     bordercolor="#000000"
     borderopacity="0.25"
     inkscape:showpageshadow="2"
     inkscape:pageopacity="0.0"
     inkscape:pagecheckerboard="0"
     inkscape:deskcolor="#d1d1d1"
     inkscape:zoom="25.5"
     inkscape:cx="16"
     inkscape:cy="15.980392"
     inkscape:window-width="1920"
     inkscape:window-height="1080"
     inkscape:window-x="0"
     inkscape:window-y="0"
     inkscape:window-maximized="1"
     inkscape:current-layer="svg1" />
  <path
     fill="currentColor"
     d="M6 8h9V6q0-1.25-.875-2.125T12 3q-1.25 0-2.125.875T9 6H7q0-2.075 1.463-3.538T12 1q2.075 0 3.538 1.463T17 6v2h1q.825 0 1.413.588T20 10v10q0 .825-.588 1.413T18 22H6q-.825 0-1.413-.588T4 20V10q0-.825.588-1.413T6 8Zm0 12h12V10H6v10Zm6-3q.825 0 1.413-.588T14 15q0-.825-.588-1.413T12 13q-.825 0-1.413.588T10 15q0 .825.588 1.413T12 17Zm-6 3V10v10Z"
     id="path1"
     style="fill:#f9f9f9" />
</svg>
