<?xml version="1.0" encoding="UTF-8" standalone="no"?>
<svg
   width="32"
   height="32"
   viewBox="0 0 24 24"
   version="1.1"
   id="svg1"
   sodipodi:docname="shutdown.svg"
   inkscape:export-filename="shutdown.png"
   inkscape:export-xdpi="96"
   inkscape:export-ydpi="96"
   inkscape:version="1.3 (0e150ed6c4, 2023-07-21)"
   xmlns:inkscape="http://www.inkscape.org/namespaces/inkscape"
   xmlns:sodipodi="http://sodipodi.sourceforge.net/DTD/sodipodi-0.dtd"
   xmlns="http://www.w3.org/2000/svg"
   xmlns:svg="http://www.w3.org/2000/svg">
  <defs
     id="defs1" />
  <sodipodi:namedview
     id="namedview1"
     pagecolor="#ffffff"
     bordercolor="#000000"
     borderopacity="0.25"
     inkscape:showpageshadow="2"
     inkscape:pageopacity="0.0"
     inkscape:pagecheckerboard="0"
     inkscape:deskcolor="#d1d1d1"
     inkscape:zoom="25.5"
     inkscape:cx="16"
     inkscape:cy="15.980392"
     inkscape:window-width="1920"
     inkscape:window-height="1080"
     inkscape:window-x="0"
     inkscape:window-y="0"
     inkscape:window-maximized="1"
     inkscape:current-layer="svg1" />
  <path
     fill="currentColor"
     d="M12 13q-.425 0-.713-.288T11 12V4q0-.425.288-.713T12 3q.425 0 .713.288T13 4v8q0 .425-.288.713T12 13Zm0 8q-1.875 0-3.513-.713t-2.85-1.924q-1.212-1.213-1.924-2.85T3 12q0-1.725.625-3.3t1.8-2.85q.275-.3.7-.3t.725.3q.275.275.25.688t-.3.737q-.875.975-1.337 2.188T5 12q0 2.925 2.038 4.963T12 19q2.925 0 4.963-2.038T19 12q0-1.325-.475-2.563t-1.35-2.212q-.275-.3-.288-.7t.263-.675q.3-.3.725-.3t.7.3q1.175 1.275 1.8 2.85T21 12q0 1.875-.713 3.513t-1.924 2.85q-1.213 1.212-2.85 1.925T12 21Z"
     id="path1"
     style="fill:#f9f9f9" />
</svg>
